<?xml version="1.0" standalone="no"?>
<!DOCTYPE svg PUBLIC "-//W3C//DTD SVG 20010904//EN"
 "http://www.w3.org/TR/2001/REC-SVG-20010904/DTD/svg10.dtd">
<svg version="1.0" xmlns="http://www.w3.org/2000/svg"
 width="413.000000pt" height="413.000000pt" viewBox="0 0 413.000000 413.000000"
 preserveAspectRatio="xMidYMid meet">
<metadata>
Created by potrace 1.14, written by Peter Selinger 2001-2017
</metadata>
<g transform="translate(0.000000,413.000000) scale(0.100000,-0.100000)"
fill="#000000" stroke="none">
<path d="M190 3965 c0 -32 -3 -35 -29 -35 -26 0 -29 -3 -35 -46 -8 -61 -8
-2547 0 -2608 6 -43 9 -46 35 -46 25 0 29 -4 29 -29 0 -26 3 -29 46 -35 61 -8
3587 -8 3648 0 43 6 46 9 46 35 0 25 4 29 29 29 26 0 29 3 35 46 8 61 8 2547
0 2608 -6 43 -9 46 -35 46 -26 0 -29 3 -29 35 l0 35 -1870 0 -1870 0 0 -35z
m3674 -141 c8 -61 8 -2310 -1 -2436 l-6 -98 -1797 0 -1797 0 -6 98 c-9 126 -9
2375 -1 2436 l7 46 1797 0 1797 0 7 -46z"/>
<path d="M510 2580 l0 -1030 1550 0 1550 0 0 1030 0 1030 -1550 0 -1550 0 0
-1030z m320 645 l0 -125 -59 0 -59 0 -7 64 c-4 35 -4 92 0 125 l7 61 59 0 59
0 0 -125z m330 0 l0 -125 -65 0 -65 0 0 125 0 125 65 0 65 0 0 -125z m320 0
l0 -125 -65 0 -65 0 0 125 0 125 65 0 65 0 0 -125z m320 0 l0 -125 -65 0 -65
0 0 125 0 125 65 0 65 0 0 -125z m325 64 c4 -33 4 -90 0 -125 l-7 -64 -58 0
-58 0 -7 64 c-4 35 -4 92 0 125 l7 61 58 0 58 0 7 -61z m325 -64 l0 -125 -65
0 -65 0 0 125 0 125 65 0 65 0 0 -125z m320 0 l0 -125 -65 0 -65 0 0 125 0
125 65 0 65 0 0 -125z m320 0 l0 -125 -65 0 -65 0 0 125 0 125 65 0 65 0 0
-125z m325 64 c4 -33 4 -90 0 -125 l-7 -64 -59 0 -59 0 0 125 0 125 59 0 59 0
7 -61z"/>
<path d="M190 995 c0 -32 -3 -35 -29 -35 -26 0 -29 -3 -35 -46 -8 -61 -8 -607
0 -668 6 -43 9 -46 35 -46 26 0 29 -3 29 -35 l0 -35 1870 0 1870 0 0 35 c0 32
3 35 29 35 26 0 29 3 35 46 8 61 8 607 0 668 -6 43 -9 46 -35 46 -26 0 -29 3
-29 35 l0 35 -1870 0 -1870 0 0 -35z m3675 -160 c4 -36 4 -180 0 -320 l-7
-255 -1798 0 -1798 0 -7 255 c-4 140 -4 284 0 320 l7 65 1798 0 1798 0 7 -65z"/>
<path d="M3328 773 c-34 -4 -38 -7 -38 -34 0 -27 -3 -29 -35 -29 l-35 0 0
-130 0 -130 35 0 c32 0 35 -2 35 -30 l0 -30 125 0 125 0 0 30 c0 28 3 30 35
30 l35 0 0 130 0 130 -35 0 c-32 0 -35 2 -35 30 0 30 -1 30 -52 30 -29 0 -69
2 -88 4 -19 2 -52 2 -72 -1z"/>
<path d="M548 643 l-38 -4 0 -58 0 -58 53 -7 c68 -8 1260 -8 1321 0 l46 7 0
57 0 57 -46 7 c-49 6 -1272 5 -1336 -1z"/>
<path d="M2098 643 l-38 -4 0 -58 0 -58 53 -7 c67 -8 217 -8 285 0 l52 7 0 57
0 57 -52 7 c-55 6 -235 6 -300 -1z"/>
</g>
</svg>
